<mxfile host="app.diagrams.net" modified="2024-04-22T21:11:11.942Z" agent="Mozilla/5.0 (X11; Linux x86_64; rv:109.0) Gecko/20100101 Firefox/115.0" version="24.2.8" etag="5q-ILKK7zIGiLQJS-QrV" type="github">
  <diagram name="Page-1" id="yZ1AmB0BeKPd9By_J6Dn">
    <mxGraphModel>
      <root>
        <mxCell id="0" />
        <mxCell id="1" parent="0" />
      </root>
    </mxGraphModel>
  </diagram>
</mxfile>
